<svg width="12" height="12" viewBox="0 0 12 12" fill="none" xmlns="http://www.w3.org/2000/svg">
<circle cx="6" cy="6" r="6" fill="white"/>
<path fill-rule="evenodd" clip-rule="evenodd" d="M4.10355 3.39645C3.90829 3.20118 3.59171 3.20118 3.39645 3.39645C3.20118 3.59171 3.20118 3.90829 3.39645 4.10355L5.37639 6.08351L3.3968 8.0631C3.20154 8.25837 3.20154 8.57495 3.3968 8.77021C3.59207 8.96547 3.90865 8.96547 4.10391 8.77021L6.0835 6.79061L8.06308 8.77021C8.25834 8.96547 8.57492 8.96547 8.77019 8.77021C8.96545 8.57495 8.96545 8.25837 8.77019 8.0631L6.7906 6.08351L8.77055 4.10355C8.96581 3.90829 8.96581 3.59171 8.77055 3.39645C8.57528 3.20118 8.2587 3.20118 8.06344 3.39645L6.0835 5.3764L4.10355 3.39645Z" fill="black" fill-opacity="0.3"/>
</svg>
