<svg width="147" height="80" viewBox="0 0 147 80" fill="none" xmlns="http://www.w3.org/2000/svg">
<path fill-rule="evenodd" clip-rule="evenodd" d="M39.25 40C39.25 39.4477 38.8023 39 38.25 39C37.6977 39 37.25 39.4477 37.25 40V43.8358L34.5377 41.1235C34.1471 40.7329 33.514 40.7329 33.1235 41.1235C32.7329 41.514 32.7329 42.1471 33.1235 42.5377L35.8358 45.25H32C31.4477 45.25 31 45.6977 31 46.25C31 46.8023 31.4477 47.25 32 47.25H35.8358L33.1235 49.9623C32.7329 50.3529 32.7329 50.986 33.1235 51.3765C33.514 51.7671 34.1471 51.7671 34.5377 51.3765L37.25 48.6642V52.5C37.25 53.0523 37.6977 53.5 38.25 53.5C38.8023 53.5 39.25 53.0523 39.25 52.5V48.6642L41.9623 51.3765C42.3528 51.767 42.986 51.767 43.3765 51.3765C43.767 50.986 43.767 50.3528 43.3765 49.9623L40.6642 47.25H44.5C45.0523 47.25 45.5 46.8023 45.5 46.25C45.5 45.6977 45.0523 45.25 44.5 45.25H40.6642L43.3765 42.5377C43.767 42.1472 43.767 41.514 43.3765 41.1235C42.986 40.733 42.3528 40.733 41.9623 41.1235L39.25 43.8358V40Z" fill="url(#paint0_linear_501_456)"/>
<path fill-rule="evenodd" clip-rule="evenodd" d="M23.25 64C23.25 63.4477 22.8023 63 22.25 63C21.6977 63 21.25 63.4477 21.25 64V67.8358L18.5377 65.1235C18.1471 64.7329 17.514 64.7329 17.1235 65.1235C16.7329 65.514 16.7329 66.1471 17.1235 66.5377L19.8358 69.25H16C15.4477 69.25 15 69.6977 15 70.25C15 70.8023 15.4477 71.25 16 71.25H19.8358L17.1235 73.9623C16.7329 74.3529 16.7329 74.986 17.1235 75.3765C17.514 75.7671 18.1471 75.7671 18.5377 75.3765L21.25 72.6642V76.5C21.25 77.0523 21.6977 77.5 22.25 77.5C22.8023 77.5 23.25 77.0523 23.25 76.5V72.6642L25.9623 75.3765C26.3528 75.767 26.986 75.767 27.3765 75.3765C27.767 74.986 27.767 74.3528 27.3765 73.9623L24.6642 71.25H28.5C29.0523 71.25 29.5 70.8023 29.5 70.25C29.5 69.6977 29.0523 69.25 28.5 69.25H24.6642L27.3765 66.5377C27.767 66.1472 27.767 65.514 27.3765 65.1235C26.986 64.733 26.3528 64.733 25.9623 65.1235L23.25 67.8358V64Z" fill="url(#paint1_linear_501_456)"/>
<path fill-rule="evenodd" clip-rule="evenodd" d="M53.25 67C53.25 66.4477 52.8023 66 52.25 66C51.6977 66 51.25 66.4477 51.25 67V70.8358L48.5377 68.1235C48.1471 67.7329 47.514 67.7329 47.1235 68.1235C46.7329 68.514 46.7329 69.1471 47.1235 69.5377L49.8358 72.25H46C45.4477 72.25 45 72.6977 45 73.25C45 73.8023 45.4477 74.25 46 74.25H49.8358L47.1235 76.9623C46.7329 77.3529 46.7329 77.986 47.1235 78.3765C47.514 78.7671 48.1471 78.7671 48.5377 78.3765L51.25 75.6642V79.5C51.25 80.0523 51.6977 80.5 52.25 80.5C52.8023 80.5 53.25 80.0523 53.25 79.5V75.6642L55.9623 78.3765C56.3528 78.767 56.986 78.767 57.3765 78.3765C57.767 77.986 57.767 77.3528 57.3765 76.9623L54.6642 74.25H58.5C59.0523 74.25 59.5 73.8023 59.5 73.25C59.5 72.6977 59.0523 72.25 58.5 72.25H54.6642L57.3765 69.5377C57.767 69.1472 57.767 68.514 57.3765 68.1235C56.986 67.733 56.3528 67.733 55.9623 68.1235L53.25 70.8358V67Z" fill="url(#paint2_linear_501_456)"/>
<path fill-rule="evenodd" clip-rule="evenodd" d="M71.25 49C71.25 48.4477 70.8023 48 70.25 48C69.6977 48 69.25 48.4477 69.25 49V52.8358L66.5377 50.1235C66.1471 49.7329 65.514 49.7329 65.1235 50.1235C64.7329 50.514 64.7329 51.1471 65.1235 51.5377L67.8358 54.25H64C63.4477 54.25 63 54.6977 63 55.25C63 55.8023 63.4477 56.25 64 56.25H67.8358L65.1235 58.9623C64.7329 59.3529 64.7329 59.986 65.1235 60.3765C65.514 60.7671 66.1471 60.7671 66.5377 60.3765L69.25 57.6642V61.5C69.25 62.0523 69.6977 62.5 70.25 62.5C70.8023 62.5 71.25 62.0523 71.25 61.5V57.6642L73.9623 60.3765C74.3528 60.767 74.986 60.767 75.3765 60.3765C75.767 59.986 75.767 59.3528 75.3765 58.9623L72.6642 56.25H76.5C77.0523 56.25 77.5 55.8023 77.5 55.25C77.5 54.6977 77.0523 54.25 76.5 54.25H72.6642L75.3765 51.5377C75.767 51.1472 75.767 50.514 75.3765 50.1235C74.986 49.733 74.3528 49.733 73.9623 50.1235L71.25 52.8358V49Z" fill="url(#paint3_linear_501_456)"/>
<path fill-rule="evenodd" clip-rule="evenodd" d="M105.25 40C105.25 39.4477 104.802 39 104.25 39C103.698 39 103.25 39.4477 103.25 40V43.8358L100.538 41.1235C100.147 40.7329 99.514 40.7329 99.1235 41.1235C98.7329 41.514 98.7329 42.1471 99.1235 42.5377L101.836 45.25H98C97.4477 45.25 97 45.6977 97 46.25C97 46.8023 97.4477 47.25 98 47.25H101.836L99.1235 49.9623C98.7329 50.3529 98.7329 50.986 99.1235 51.3765C99.514 51.7671 100.147 51.7671 100.538 51.3765L103.25 48.6642V52.5C103.25 53.0523 103.698 53.5 104.25 53.5C104.802 53.5 105.25 53.0523 105.25 52.5V48.6642L107.962 51.3765C108.353 51.767 108.986 51.767 109.377 51.3765C109.767 50.986 109.767 50.3528 109.377 49.9623L106.664 47.25H110.5C111.052 47.25 111.5 46.8023 111.5 46.25C111.5 45.6977 111.052 45.25 110.5 45.25H106.664L109.377 42.5377C109.767 42.1472 109.767 41.514 109.377 41.1235C108.986 40.733 108.353 40.733 107.962 41.1235L105.25 43.8358V40Z" fill="url(#paint4_linear_501_456)"/>
<path fill-rule="evenodd" clip-rule="evenodd" d="M100.25 64C100.25 63.4477 99.8023 63 99.25 63C98.6977 63 98.25 63.4477 98.25 64V67.8358L95.5377 65.1235C95.1471 64.7329 94.514 64.7329 94.1235 65.1235C93.7329 65.514 93.7329 66.1471 94.1235 66.5377L96.8358 69.25H93C92.4477 69.25 92 69.6977 92 70.25C92 70.8023 92.4477 71.25 93 71.25H96.8358L94.1235 73.9623C93.7329 74.3529 93.7329 74.986 94.1235 75.3765C94.514 75.7671 95.1471 75.7671 95.5377 75.3765L98.25 72.6642V76.5C98.25 77.0523 98.6977 77.5 99.25 77.5C99.8023 77.5 100.25 77.0523 100.25 76.5V72.6642L102.962 75.3765C103.353 75.767 103.986 75.767 104.377 75.3765C104.767 74.986 104.767 74.3528 104.377 73.9623L101.664 71.25H105.5C106.052 71.25 106.5 70.8023 106.5 70.25C106.5 69.6977 106.052 69.25 105.5 69.25H101.664L104.377 66.5377C104.767 66.1472 104.767 65.514 104.377 65.1235C103.986 64.733 103.353 64.733 102.962 65.1235L100.25 67.8358V64Z" fill="url(#paint5_linear_501_456)"/>
<path fill-rule="evenodd" clip-rule="evenodd" d="M132.25 52C132.25 51.4477 131.802 51 131.25 51C130.698 51 130.25 51.4477 130.25 52V55.8358L127.538 53.1235C127.147 52.7329 126.514 52.7329 126.123 53.1235C125.733 53.514 125.733 54.1471 126.123 54.5377L128.836 57.25H125C124.448 57.25 124 57.6977 124 58.25C124 58.8023 124.448 59.25 125 59.25H128.836L126.123 61.9623C125.733 62.3529 125.733 62.986 126.123 63.3765C126.514 63.7671 127.147 63.7671 127.538 63.3765L130.25 60.6642V64.5C130.25 65.0523 130.698 65.5 131.25 65.5C131.802 65.5 132.25 65.0523 132.25 64.5V60.6642L134.962 63.3765C135.353 63.767 135.986 63.767 136.377 63.3765C136.767 62.986 136.767 62.3528 136.377 61.9623L133.664 59.25H137.5C138.052 59.25 138.5 58.8023 138.5 58.25C138.5 57.6977 138.052 57.25 137.5 57.25H133.664L136.377 54.5377C136.767 54.1472 136.767 53.514 136.377 53.1235C135.986 52.733 135.353 52.733 134.962 53.1235L132.25 55.8358V52Z" fill="url(#paint6_linear_501_456)"/>
<path fill-rule="evenodd" clip-rule="evenodd" d="M27.222 -15.9894C30.614 -39.7406 51.0383 -58 75.7273 -58C91.8139 -58 106.09 -50.2481 115.024 -38.2761C118.885 -39.5136 123.001 -40.1818 127.273 -40.1818C149.414 -40.1818 167.364 -22.2325 167.364 -0.0909119C167.364 22.0507 149.414 40 127.273 40H75.7273H28H24.1818V39.7418C10.5241 37.8796 0 26.1688 0 12C0 -3.20379 12.1177 -15.5773 27.222 -15.9894Z" fill="#D8D8D8"/>
<defs>
<linearGradient id="paint0_linear_501_456" x1="38.25" y1="34" x2="38.25" y2="53.5" gradientUnits="userSpaceOnUse">
<stop stop-color="white" stop-opacity="0"/>
<stop offset="1" stop-color="white"/>
</linearGradient>
<linearGradient id="paint1_linear_501_456" x1="22.25" y1="58" x2="22.25" y2="77.5" gradientUnits="userSpaceOnUse">
<stop stop-color="white" stop-opacity="0"/>
<stop offset="1" stop-color="white"/>
</linearGradient>
<linearGradient id="paint2_linear_501_456" x1="52.25" y1="61" x2="52.25" y2="80.5" gradientUnits="userSpaceOnUse">
<stop stop-color="white" stop-opacity="0"/>
<stop offset="1" stop-color="white"/>
</linearGradient>
<linearGradient id="paint3_linear_501_456" x1="70.25" y1="43" x2="70.25" y2="62.5" gradientUnits="userSpaceOnUse">
<stop stop-color="white" stop-opacity="0"/>
<stop offset="1" stop-color="white"/>
</linearGradient>
<linearGradient id="paint4_linear_501_456" x1="104.25" y1="34" x2="104.25" y2="53.5" gradientUnits="userSpaceOnUse">
<stop stop-color="white" stop-opacity="0"/>
<stop offset="1" stop-color="white"/>
</linearGradient>
<linearGradient id="paint5_linear_501_456" x1="99.25" y1="58" x2="99.25" y2="77.5" gradientUnits="userSpaceOnUse">
<stop stop-color="white" stop-opacity="0"/>
<stop offset="1" stop-color="white"/>
</linearGradient>
<linearGradient id="paint6_linear_501_456" x1="131.25" y1="46" x2="131.25" y2="65.5" gradientUnits="userSpaceOnUse">
<stop stop-color="white" stop-opacity="0"/>
<stop offset="1" stop-color="white"/>
</linearGradient>
</defs>
</svg>
