<svg width="88" height="24" fill="none" xmlns="http://www.w3.org/2000/svg"><path d="m11.104 23 1.12-5.632.896-6.656.896 6.656L15.136 23h7.04L26.08 7.192h-6.272l-.704 6.752-.512 5.568-.896-5.536-1.44-6.784H9.92l-1.312 6.784-.96 5.536-.512-5.568-.704-6.752H.16L4.064 23h7.04Zm23.306.32c2.56 0 4.256-1.216 4.928-1.984l-1.568-4.32c-.512.8-1.344 1.312-2.048 1.312-.736 0-1.152-.416-1.152-1.248v-5.536h3.84V7.192h-3.84V2.84L28.81 5.4v1.792h-2.24v4.352h2.24v6.368c0 3.072 1.504 5.408 5.6 5.408ZM49.667 23l1.12-5.632.895-6.656.896 6.656L53.698 23h7.04l3.904-15.808h-6.271l-.705 6.752-.511 5.568-.897-5.536-1.44-6.784h-6.335l-1.313 6.784-.96 5.536-.511-5.568-.704-6.752h-6.273L42.626 23h7.04Zm21.467 0v-7.968c0-2.56 1.216-3.808 2.528-3.808.928 0 1.312.608 1.312 1.504 0 .96-.64 2.176-1.216 2.848h5.28c.448-.8 1.088-2.432 1.088-4.352 0-2.624-1.024-4.352-3.776-4.352-3.232 0-4.736 2.944-5.216 5.664V7.192h-5.76V23h5.76Zm13.25-15.776c1.729 0 3.137-1.28 3.137-3.168C87.52 2.2 86.113.92 84.385.92c-1.728 0-3.136 1.28-3.136 3.136 0 1.888 1.408 3.168 3.136 3.168Zm0-2.208c-.511 0-.831-.352-.831-.96s.32-.928.832-.928.832.32.832.928c0 .608-.32.96-.832.96Z" fill="#000"/></svg>