<svg width="16" height="16" viewBox="0 0 16 16" fill="none" xmlns="http://www.w3.org/2000/svg">
<path fill-rule="evenodd" clip-rule="evenodd" d="M15.7023 1.70711C16.0929 1.31658 16.0929 0.683417 15.7023 0.292893C15.3118 -0.0976311 14.6787 -0.0976311 14.2881 0.292893L7.99805 6.58298L1.70796 0.292893C1.31744 -0.0976311 0.684274 -0.0976311 0.29375 0.292893C-0.096775 0.683417 -0.096775 1.31658 0.29375 1.70711L6.58383 7.99719L0.292893 14.2881C-0.0976311 14.6787 -0.0976311 15.3118 0.292893 15.7023C0.683417 16.0929 1.31658 16.0929 1.70711 15.7023L7.99805 9.4114L14.289 15.7023C14.6795 16.0929 15.3127 16.0929 15.7032 15.7023C16.0937 15.3118 16.0937 14.6787 15.7032 14.2881L9.41226 7.99719L15.7023 1.70711Z" fill="black" fill-opacity="0.3"/>
</svg>
