<svg width="12" height="16" viewBox="0 0 12 16" fill="none" xmlns="http://www.w3.org/2000/svg">
<path d="M6 15.3887C5.16797 15.3887 4.38867 15.2344 3.66211 14.9258C2.93945 14.6133 2.30273 14.1816 1.75195 13.6309C1.20117 13.0801 0.771484 12.4434 0.462891 11.7207C0.154297 10.9941 0 10.2168 0 9.38867C0 8.56055 0.154297 7.78516 0.462891 7.0625C0.775391 6.33594 1.20508 5.69727 1.75195 5.14648C2.30273 4.5957 2.93945 4.16602 3.66211 3.85742C4.38867 3.54492 5.16797 3.38867 6 3.38867V4.90625C5.37891 4.90625 4.79688 5.02344 4.25391 5.25781C3.71484 5.48828 3.24023 5.80859 2.83008 6.21875C2.41992 6.62891 2.09766 7.10547 1.86328 7.64844C1.63281 8.1875 1.51758 8.76758 1.51758 9.38867C1.51758 10.0098 1.63281 10.5918 1.86328 11.1348C2.09375 11.6738 2.41406 12.1484 2.82422 12.5586C3.23438 12.9688 3.71094 13.291 4.25391 13.5254C4.79688 13.7559 5.37891 13.8711 6 13.8711C6.62109 13.8711 7.20117 13.7559 7.74023 13.5254C8.2832 13.291 8.75977 12.9688 9.16992 12.5586C9.58398 12.1484 9.90625 11.6719 10.1367 11.1289C10.3672 10.5859 10.4824 10.0059 10.4824 9.38867H12C12 10.2168 11.8438 10.9941 11.5312 11.7207C11.2227 12.4434 10.793 13.0801 10.2422 13.6309C9.69141 14.1816 9.05273 14.6133 8.32617 14.9258C7.60352 15.2344 6.82812 15.3887 6 15.3887ZM5.66016 7.90039V0.611328L9.32813 4.25586L5.66016 7.90039Z" fill="white"/>
</svg>
