<svg width="150" height="75" viewBox="0 0 150 75" fill="none" xmlns="http://www.w3.org/2000/svg">
<circle cx="40" cy="48" r="3" fill="url(#paint0_linear_902_451)"/>
<circle cx="84" cy="48" r="3" fill="url(#paint1_linear_902_451)"/>
<circle cx="128" cy="48" r="3" fill="url(#paint2_linear_902_451)"/>
<circle cx="51" cy="60" r="3" fill="url(#paint3_linear_902_451)"/>
<circle cx="62" cy="72" r="3" fill="url(#paint4_linear_902_451)"/>
<circle cx="29" cy="60" r="3" fill="url(#paint5_linear_902_451)"/>
<circle cx="40" cy="72" r="3" fill="url(#paint6_linear_902_451)"/>
<circle cx="18" cy="72" r="3" fill="url(#paint7_linear_902_451)"/>
<circle cx="95" cy="60" r="3" fill="url(#paint8_linear_902_451)"/>
<circle cx="106" cy="72" r="3" fill="url(#paint9_linear_902_451)"/>
<circle cx="73" cy="60" r="3" fill="url(#paint10_linear_902_451)"/>
<circle cx="84" cy="72" r="3" fill="url(#paint11_linear_902_451)"/>
<circle cx="117" cy="60" r="3" fill="url(#paint12_linear_902_451)"/>
<circle cx="62" cy="48" r="3" fill="url(#paint13_linear_902_451)"/>
<circle cx="106" cy="48" r="3" fill="url(#paint14_linear_902_451)"/>
<path fill-rule="evenodd" clip-rule="evenodd" d="M30.2113 -15.914C33.5708 -39.702 54.0122 -58 78.7273 -58C94.8139 -58 109.09 -50.2481 118.024 -38.2761C121.885 -39.5136 126.001 -40.1818 130.273 -40.1818C152.414 -40.1818 170.364 -22.2325 170.364 -0.0909119C170.364 22.0507 152.414 40 130.273 40H78.7273H28H27.1818V39.9883C12.0963 39.5554 0 27.1903 0 12C0 -3.46397 12.536 -16 28 -16C28.7442 -16 29.4817 -15.971 30.2113 -15.914Z" fill="#D8D8D8"/>
<defs>
<linearGradient id="paint0_linear_902_451" x1="38.5" y1="50" x2="44" y2="40.5" gradientUnits="userSpaceOnUse">
<stop stop-color="white"/>
<stop offset="1" stop-color="white" stop-opacity="0"/>
</linearGradient>
<linearGradient id="paint1_linear_902_451" x1="82.5" y1="50" x2="88" y2="40.5" gradientUnits="userSpaceOnUse">
<stop stop-color="white"/>
<stop offset="1" stop-color="white" stop-opacity="0"/>
</linearGradient>
<linearGradient id="paint2_linear_902_451" x1="126.5" y1="50" x2="132" y2="40.5" gradientUnits="userSpaceOnUse">
<stop stop-color="white"/>
<stop offset="1" stop-color="white" stop-opacity="0"/>
</linearGradient>
<linearGradient id="paint3_linear_902_451" x1="49.5" y1="62" x2="55" y2="52.5" gradientUnits="userSpaceOnUse">
<stop stop-color="white"/>
<stop offset="1" stop-color="white" stop-opacity="0"/>
</linearGradient>
<linearGradient id="paint4_linear_902_451" x1="60.5" y1="74" x2="66" y2="64.5" gradientUnits="userSpaceOnUse">
<stop stop-color="white"/>
<stop offset="1" stop-color="white" stop-opacity="0"/>
</linearGradient>
<linearGradient id="paint5_linear_902_451" x1="27.5" y1="62" x2="33" y2="52.5" gradientUnits="userSpaceOnUse">
<stop stop-color="white"/>
<stop offset="1" stop-color="white" stop-opacity="0"/>
</linearGradient>
<linearGradient id="paint6_linear_902_451" x1="38.5" y1="74" x2="44" y2="64.5" gradientUnits="userSpaceOnUse">
<stop stop-color="white"/>
<stop offset="1" stop-color="white" stop-opacity="0"/>
</linearGradient>
<linearGradient id="paint7_linear_902_451" x1="16.5" y1="74" x2="22" y2="64.5" gradientUnits="userSpaceOnUse">
<stop stop-color="white"/>
<stop offset="1" stop-color="white" stop-opacity="0"/>
</linearGradient>
<linearGradient id="paint8_linear_902_451" x1="93.5" y1="62" x2="99" y2="52.5" gradientUnits="userSpaceOnUse">
<stop stop-color="white"/>
<stop offset="1" stop-color="white" stop-opacity="0"/>
</linearGradient>
<linearGradient id="paint9_linear_902_451" x1="104.5" y1="74" x2="110" y2="64.5" gradientUnits="userSpaceOnUse">
<stop stop-color="white"/>
<stop offset="1" stop-color="white" stop-opacity="0"/>
</linearGradient>
<linearGradient id="paint10_linear_902_451" x1="71.5" y1="62" x2="77" y2="52.5" gradientUnits="userSpaceOnUse">
<stop stop-color="white"/>
<stop offset="1" stop-color="white" stop-opacity="0"/>
</linearGradient>
<linearGradient id="paint11_linear_902_451" x1="82.5" y1="74" x2="88" y2="64.5" gradientUnits="userSpaceOnUse">
<stop stop-color="white"/>
<stop offset="1" stop-color="white" stop-opacity="0"/>
</linearGradient>
<linearGradient id="paint12_linear_902_451" x1="115.5" y1="62" x2="121" y2="52.5" gradientUnits="userSpaceOnUse">
<stop stop-color="white"/>
<stop offset="1" stop-color="white" stop-opacity="0"/>
</linearGradient>
<linearGradient id="paint13_linear_902_451" x1="60.5" y1="50" x2="66" y2="40.5" gradientUnits="userSpaceOnUse">
<stop stop-color="white"/>
<stop offset="1" stop-color="white" stop-opacity="0"/>
</linearGradient>
<linearGradient id="paint14_linear_902_451" x1="104.5" y1="50" x2="110" y2="40.5" gradientUnits="userSpaceOnUse">
<stop stop-color="white"/>
<stop offset="1" stop-color="white" stop-opacity="0"/>
</linearGradient>
</defs>
</svg>
