<svg width="580" height="500" viewBox="0 0 580 500" fill="none" xmlns="http://www.w3.org/2000/svg">
<path d="M522.446 500L40.449 499.973C18.108 499.972 -0.000999959 481.861 4.14139e-08 459.521V459.381L562.899 459.412V459.551C562.898 481.891 544.786 500.001 522.446 500Z" fill="url(#paint0_linear_214_620)"/>
<path d="M298.384 0L296.763 287.193L68.2579 343.124C28.6579 350.594 0.00785938 384.869 0.00685938 424.776L0.00585938 458.704L441.003 458.725C441.006 391.639 495.578 337.256 562.895 337.256C563.082 337.256 563.267 337.262 563.454 337.263L564.052 0.215" fill="url(#paint1_linear_214_620)"/>
<path d="M562.894 458.732L563.453 337.259C495.879 336.957 441.005 391.455 441.002 458.727L562.894 458.732Z" fill="url(#paint2_linear_214_620)"/>
<path d="M562.894 458.732L563.453 337.259C495.879 336.957 441.005 391.455 441.002 458.727L562.894 458.732Z" fill="url(#paint3_linear_214_620)"/>
<path d="M559.357 119.298H296.803C285.402 119.298 276.16 110.056 276.16 98.655V20.859C276.16 9.458 285.402 0.216003 296.803 0.216003H559.357C570.758 0.216003 580 9.459 580 20.859V98.655C580 110.056 570.758 119.298 559.357 119.298Z" fill="url(#paint4_linear_214_620)"/>
<path d="M522.446 500L40.449 499.973C18.108 499.972 -0.000999959 481.861 4.14139e-08 459.521V459.381L562.899 459.412V459.551C562.898 481.891 544.786 500.001 522.446 500Z" fill="url(#paint5_linear_214_620)"/>
<path d="M298.384 0L296.763 287.193L68.2579 343.124C28.6579 350.594 0.00785938 384.869 0.00685938 424.776L0.00585938 458.704L441.003 458.725C441.006 391.639 495.578 337.256 562.895 337.256C563.082 337.256 563.267 337.262 563.454 337.263L564.052 0.215" fill="url(#paint6_linear_214_620)"/>
<path d="M562.894 458.732L563.453 337.259C495.879 336.957 441.005 391.455 441.002 458.727L562.894 458.732Z" fill="url(#paint7_linear_214_620)"/>
<path d="M562.894 458.732L563.453 337.259C495.879 336.957 441.005 391.455 441.002 458.727L562.894 458.732Z" fill="url(#paint8_linear_214_620)"/>
<path d="M559.357 119.298H296.803C285.402 119.298 276.16 110.056 276.16 98.655V20.859C276.16 9.458 285.402 0.216003 296.803 0.216003H559.357C570.758 0.216003 580 9.459 580 20.859V98.655C580 110.056 570.758 119.298 559.357 119.298Z" fill="url(#paint9_linear_214_620)"/>
<defs>
<linearGradient id="paint0_linear_214_620" x1="281.193" y1="501.445" x2="281.591" y2="436.285" gradientUnits="userSpaceOnUse">
<stop stop-color="#D1D3D4"/>
<stop offset="1" stop-color="white"/>
</linearGradient>
<linearGradient id="paint1_linear_214_620" x1="281.244" y1="460.423" x2="285.446" y2="-227.505" gradientUnits="userSpaceOnUse">
<stop stop-color="#D1D3D4"/>
<stop offset="0.7896" stop-color="white"/>
</linearGradient>
<linearGradient id="paint2_linear_214_620" x1="501.928" y1="461.762" x2="503.485" y2="206.914" gradientUnits="userSpaceOnUse">
<stop stop-color="#D1D3D4"/>
<stop offset="0.7896" stop-color="white"/>
</linearGradient>
<linearGradient id="paint3_linear_214_620" x1="531.456" y1="447.527" x2="427.59" y2="271.502" gradientUnits="userSpaceOnUse">
<stop offset="0.0726" stop-color="white"/>
<stop offset="1" stop-color="#A7A9AC"/>
</linearGradient>
<linearGradient id="paint4_linear_214_620" x1="427.714" y1="120.092" x2="428.803" y2="-59.6199" gradientUnits="userSpaceOnUse">
<stop stop-color="#D1D3D4"/>
<stop offset="0.7896" stop-color="white"/>
</linearGradient>
<linearGradient id="paint5_linear_214_620" x1="281.193" y1="501.445" x2="281.591" y2="436.285" gradientUnits="userSpaceOnUse">
<stop stop-color="#D1D3D4"/>
<stop offset="1" stop-color="white"/>
</linearGradient>
<linearGradient id="paint6_linear_214_620" x1="281.244" y1="460.423" x2="285.446" y2="-227.505" gradientUnits="userSpaceOnUse">
<stop stop-color="#D1D3D4"/>
<stop offset="0.7896" stop-color="white"/>
</linearGradient>
<linearGradient id="paint7_linear_214_620" x1="501.928" y1="461.762" x2="503.485" y2="206.914" gradientUnits="userSpaceOnUse">
<stop stop-color="#D1D3D4"/>
<stop offset="0.7896" stop-color="white"/>
</linearGradient>
<linearGradient id="paint8_linear_214_620" x1="531.456" y1="447.527" x2="427.59" y2="271.502" gradientUnits="userSpaceOnUse">
<stop offset="0.0726" stop-color="white"/>
<stop offset="1" stop-color="#A7A9AC"/>
</linearGradient>
<linearGradient id="paint9_linear_214_620" x1="427.714" y1="120.092" x2="428.803" y2="-59.6199" gradientUnits="userSpaceOnUse">
<stop stop-color="#D1D3D4"/>
<stop offset="0.7896" stop-color="white"/>
</linearGradient>
</defs>
</svg>
