<svg width="694" height="499" viewBox="0 0 694 499" fill="none" xmlns="http://www.w3.org/2000/svg">
<g clip-path="url(#clip0_214_592)">
<g opacity="0.49">
<path d="M162.724 0.121994H130.105C58.25 0.121994 0 58.372 0 130.227V158.193V365.092C0 376.125 8.944 385.069 19.977 385.069H110.127C121.16 385.069 130.104 376.125 130.104 365.092V158.193H162.723V0.121994H162.724Z" fill="url(#paint0_linear_214_592)"/>
<path d="M531.276 0.121994H563.895C635.75 0.121994 694 58.372 694 130.227V158.193V365.092C694 376.125 685.056 385.069 674.023 385.069H583.873C572.84 385.069 563.896 376.125 563.896 365.092V158.193H531.277V0.121994H531.276Z" fill="url(#paint1_linear_214_592)"/>
<path d="M531.213 0.121994V466.918C531.213 484.588 516.902 498.913 499.248 498.913H194.689C177.035 498.913 162.724 484.589 162.724 466.918V0.121994H531.213Z" fill="url(#paint2_linear_214_592)"/>
<path d="M231.651 1.129L202.287 50.823L346.851 166.329L297.157 0L231.651 1.129Z" fill="url(#paint3_linear_214_592)"/>
<path d="M462.286 1.129L396.781 0L347.086 166.329L491.651 50.823L462.286 1.129Z" fill="url(#paint4_linear_214_592)"/>
<path d="M286.353 293.647C298.205 293.647 307.812 284.039 307.812 272.188C307.812 260.337 298.205 250.729 286.353 250.729C274.502 250.729 264.894 260.337 264.894 272.188C264.894 284.039 274.502 293.647 286.353 293.647Z" fill="url(#paint5_linear_214_592)"/>
<path d="M408.991 293.647C420.842 293.647 430.45 284.039 430.45 272.188C430.45 260.337 420.842 250.729 408.991 250.729C397.139 250.729 387.532 260.337 387.532 272.188C387.532 284.039 397.139 293.647 408.991 293.647Z" fill="url(#paint6_linear_214_592)"/>
<path d="M286.353 403.199C298.205 403.199 307.812 393.591 307.812 381.74C307.812 369.889 298.205 360.281 286.353 360.281C274.502 360.281 264.894 369.889 264.894 381.74C264.894 393.591 274.502 403.199 286.353 403.199Z" fill="url(#paint7_linear_214_592)"/>
<path d="M408.991 403.199C420.842 403.199 430.45 393.591 430.45 381.74C430.45 369.889 420.842 360.281 408.991 360.281C397.139 360.281 387.532 369.889 387.532 381.74C387.532 393.591 397.139 403.199 408.991 403.199Z" fill="url(#paint8_linear_214_592)"/>
</g>
<g opacity="0.49">
<path d="M162.724 0.121994H130.105C58.25 0.121994 0 58.372 0 130.227V158.193V365.092C0 376.125 8.944 385.069 19.977 385.069H110.127C121.16 385.069 130.104 376.125 130.104 365.092V158.193H162.723V0.121994H162.724Z" fill="url(#paint9_linear_214_592)"/>
<path d="M531.276 0.121994H563.895C635.75 0.121994 694 58.372 694 130.227V158.193V365.092C694 376.125 685.056 385.069 674.023 385.069H583.873C572.84 385.069 563.896 376.125 563.896 365.092V158.193H531.277V0.121994H531.276Z" fill="url(#paint10_linear_214_592)"/>
<path d="M531.213 0.121994V466.918C531.213 484.588 516.902 498.913 499.248 498.913H194.689C177.035 498.913 162.724 484.589 162.724 466.918V0.121994H531.213Z" fill="url(#paint11_linear_214_592)"/>
<path d="M231.651 1.129L202.287 50.823L346.851 166.329L297.157 0L231.651 1.129Z" fill="url(#paint12_linear_214_592)"/>
<path d="M462.286 1.129L396.781 0L347.086 166.329L491.651 50.823L462.286 1.129Z" fill="url(#paint13_linear_214_592)"/>
<path d="M286.353 293.647C298.205 293.647 307.812 284.039 307.812 272.188C307.812 260.337 298.205 250.729 286.353 250.729C274.502 250.729 264.894 260.337 264.894 272.188C264.894 284.039 274.502 293.647 286.353 293.647Z" fill="url(#paint14_linear_214_592)"/>
<path d="M408.991 293.647C420.842 293.647 430.45 284.039 430.45 272.188C430.45 260.337 420.842 250.729 408.991 250.729C397.139 250.729 387.532 260.337 387.532 272.188C387.532 284.039 397.139 293.647 408.991 293.647Z" fill="url(#paint15_linear_214_592)"/>
<path d="M286.353 403.199C298.205 403.199 307.812 393.591 307.812 381.74C307.812 369.889 298.205 360.281 286.353 360.281C274.502 360.281 264.894 369.889 264.894 381.74C264.894 393.591 274.502 403.199 286.353 403.199Z" fill="url(#paint16_linear_214_592)"/>
<path d="M408.991 403.199C420.842 403.199 430.45 393.591 430.45 381.74C430.45 369.889 420.842 360.281 408.991 360.281C397.139 360.281 387.532 369.889 387.532 381.74C387.532 393.591 397.139 403.199 408.991 403.199Z" fill="url(#paint17_linear_214_592)"/>
</g>
</g>
<defs>
<linearGradient id="paint0_linear_214_592" x1="0" y1="192.595" x2="242.343" y2="192.595" gradientUnits="userSpaceOnUse">
<stop stop-color="#D1D3D4"/>
<stop offset="1" stop-color="white"/>
</linearGradient>
<linearGradient id="paint1_linear_214_592" x1="694" y1="192.595" x2="451.657" y2="192.595" gradientUnits="userSpaceOnUse">
<stop stop-color="#D1D3D4"/>
<stop offset="1" stop-color="white"/>
</linearGradient>
<linearGradient id="paint2_linear_214_592" x1="354.103" y1="536.18" x2="341.572" y2="4.88759" gradientUnits="userSpaceOnUse">
<stop stop-color="white"/>
<stop offset="1" stop-color="#A7A9AC"/>
</linearGradient>
<linearGradient id="paint3_linear_214_592" x1="275.479" y1="281.482" x2="273.22" y2="-147.693" gradientUnits="userSpaceOnUse">
<stop stop-color="white"/>
<stop offset="1" stop-color="#A7A9AC"/>
</linearGradient>
<linearGradient id="paint4_linear_214_592" x1="420.275" y1="280.72" x2="418.016" y2="-148.455" gradientUnits="userSpaceOnUse">
<stop stop-color="white"/>
<stop offset="1" stop-color="#A7A9AC"/>
</linearGradient>
<linearGradient id="paint5_linear_214_592" x1="132.415" y1="253.218" x2="551.708" y2="304.888" gradientUnits="userSpaceOnUse">
<stop stop-color="white"/>
<stop offset="1" stop-color="#A7A9AC"/>
</linearGradient>
<linearGradient id="paint6_linear_214_592" x1="134.25" y1="238.331" x2="553.543" y2="290.001" gradientUnits="userSpaceOnUse">
<stop stop-color="white"/>
<stop offset="1" stop-color="#A7A9AC"/>
</linearGradient>
<linearGradient id="paint7_linear_214_592" x1="119.117" y1="361.131" x2="538.41" y2="412.802" gradientUnits="userSpaceOnUse">
<stop stop-color="white"/>
<stop offset="1" stop-color="#A7A9AC"/>
</linearGradient>
<linearGradient id="paint8_linear_214_592" x1="120.951" y1="346.245" x2="540.244" y2="397.915" gradientUnits="userSpaceOnUse">
<stop stop-color="white"/>
<stop offset="1" stop-color="#A7A9AC"/>
</linearGradient>
<linearGradient id="paint9_linear_214_592" x1="0" y1="192.595" x2="242.343" y2="192.595" gradientUnits="userSpaceOnUse">
<stop stop-color="#D1D3D4"/>
<stop offset="1" stop-color="white"/>
</linearGradient>
<linearGradient id="paint10_linear_214_592" x1="694" y1="192.595" x2="451.657" y2="192.595" gradientUnits="userSpaceOnUse">
<stop stop-color="#D1D3D4"/>
<stop offset="1" stop-color="white"/>
</linearGradient>
<linearGradient id="paint11_linear_214_592" x1="354.103" y1="536.18" x2="341.572" y2="4.88759" gradientUnits="userSpaceOnUse">
<stop stop-color="white"/>
<stop offset="1" stop-color="#A7A9AC"/>
</linearGradient>
<linearGradient id="paint12_linear_214_592" x1="275.479" y1="281.482" x2="273.22" y2="-147.693" gradientUnits="userSpaceOnUse">
<stop stop-color="white"/>
<stop offset="1" stop-color="#A7A9AC"/>
</linearGradient>
<linearGradient id="paint13_linear_214_592" x1="420.275" y1="280.72" x2="418.016" y2="-148.455" gradientUnits="userSpaceOnUse">
<stop stop-color="white"/>
<stop offset="1" stop-color="#A7A9AC"/>
</linearGradient>
<linearGradient id="paint14_linear_214_592" x1="132.415" y1="253.218" x2="551.708" y2="304.888" gradientUnits="userSpaceOnUse">
<stop stop-color="white"/>
<stop offset="1" stop-color="#A7A9AC"/>
</linearGradient>
<linearGradient id="paint15_linear_214_592" x1="134.25" y1="238.331" x2="553.543" y2="290.001" gradientUnits="userSpaceOnUse">
<stop stop-color="white"/>
<stop offset="1" stop-color="#A7A9AC"/>
</linearGradient>
<linearGradient id="paint16_linear_214_592" x1="119.117" y1="361.131" x2="538.41" y2="412.802" gradientUnits="userSpaceOnUse">
<stop stop-color="white"/>
<stop offset="1" stop-color="#A7A9AC"/>
</linearGradient>
<linearGradient id="paint17_linear_214_592" x1="120.951" y1="346.245" x2="540.244" y2="397.915" gradientUnits="userSpaceOnUse">
<stop stop-color="white"/>
<stop offset="1" stop-color="#A7A9AC"/>
</linearGradient>
<clipPath id="clip0_214_592">
<rect width="694" height="498.912" fill="white"/>
</clipPath>
</defs>
</svg>
