<svg width="581" height="500" viewBox="0 0 581 500" fill="none" xmlns="http://www.w3.org/2000/svg">
<g clip-path="url(#clip0_214_561)">
<g opacity="0.49">
<path d="M156.846 113.91L66.281 0H156.846V113.91Z" fill="url(#paint0_linear_214_561)"/>
<path d="M422.699 113.91V0H513.883L422.699 113.91Z" fill="url(#paint1_linear_214_561)"/>
<path d="M288.6 71.403C328.048 71.403 360.027 39.435 360.027 0H342.014C342.014 29.49 318.1 53.396 288.6 53.396C259.1 53.396 235.186 29.49 235.186 0H217.173C217.173 39.435 249.152 71.403 288.6 71.403Z" fill="url(#paint2_linear_214_561)"/>
</g>
<path d="M0 472C73.269 472 70.269 500 143.539 500C216.808 500 216.808 472 290.076 472C363.348 472 363.348 500 436.62 500C509.892 500 506.892 472 580.164 472L422.788 210.106H157.376" fill="url(#paint3_linear_214_561)"/>
<path d="M422.728 210.106V0H360.027C360.027 39.435 328.048 71.403 288.6 71.403C249.152 71.403 217.173 39.435 217.173 0H156.846V210.106H422.728Z" fill="url(#paint4_linear_214_561)"/>
<g opacity="0.49">
<path d="M156.846 113.91L66.281 0H156.846V113.91Z" fill="url(#paint5_linear_214_561)"/>
<path d="M422.699 113.91V0H513.883L422.699 113.91Z" fill="url(#paint6_linear_214_561)"/>
<path d="M288.6 71.403C328.048 71.403 360.027 39.435 360.027 0H342.014C342.014 29.49 318.1 53.396 288.6 53.396C259.1 53.396 235.186 29.49 235.186 0H217.173C217.173 39.435 249.152 71.403 288.6 71.403Z" fill="url(#paint7_linear_214_561)"/>
</g>
<path d="M0 472C73.269 472 70.269 500 143.539 500C216.808 500 216.808 472 290.076 472C363.348 472 363.348 500 436.62 500C509.892 500 506.892 472 580.164 472L422.788 210.106H157.376" fill="url(#paint8_linear_214_561)"/>
<path d="M422.728 210.106V0H360.027C360.027 39.435 328.048 71.403 288.6 71.403C249.152 71.403 217.173 39.435 217.173 0H156.846V210.106H422.728Z" fill="url(#paint9_linear_214_561)"/>
</g>
<defs>
<linearGradient id="paint0_linear_214_561" x1="66.2809" y1="56.9553" x2="201.158" y2="56.9553" gradientUnits="userSpaceOnUse">
<stop stop-color="#D1D3D4"/>
<stop offset="1" stop-color="white"/>
</linearGradient>
<linearGradient id="paint1_linear_214_561" x1="401.969" y1="56.9553" x2="493.152" y2="56.9553" gradientUnits="userSpaceOnUse">
<stop stop-color="white"/>
<stop offset="1" stop-color="#D1D3D4"/>
</linearGradient>
<linearGradient id="paint2_linear_214_561" x1="287.487" y1="123.664" x2="288.789" y2="-20.9189" gradientUnits="userSpaceOnUse">
<stop offset="0.1585" stop-color="white"/>
<stop offset="0.836" stop-color="#D1D3D4"/>
</linearGradient>
<linearGradient id="paint3_linear_214_561" x1="292.971" y1="576.796" x2="280.547" y2="126.162" gradientUnits="userSpaceOnUse">
<stop offset="0.2021" stop-color="white"/>
<stop offset="1" stop-color="#A7A9AC"/>
</linearGradient>
<linearGradient id="paint4_linear_214_561" x1="285.452" y1="257.248" x2="300.699" y2="-278.092" gradientUnits="userSpaceOnUse">
<stop stop-color="white"/>
<stop offset="1" stop-color="#A7A9AC"/>
</linearGradient>
<linearGradient id="paint5_linear_214_561" x1="66.2809" y1="56.9553" x2="201.158" y2="56.9553" gradientUnits="userSpaceOnUse">
<stop stop-color="#D1D3D4"/>
<stop offset="1" stop-color="white"/>
</linearGradient>
<linearGradient id="paint6_linear_214_561" x1="401.969" y1="56.9553" x2="493.152" y2="56.9553" gradientUnits="userSpaceOnUse">
<stop stop-color="white"/>
<stop offset="1" stop-color="#D1D3D4"/>
</linearGradient>
<linearGradient id="paint7_linear_214_561" x1="287.487" y1="123.664" x2="288.789" y2="-20.9189" gradientUnits="userSpaceOnUse">
<stop offset="0.1585" stop-color="white"/>
<stop offset="0.836" stop-color="#D1D3D4"/>
</linearGradient>
<linearGradient id="paint8_linear_214_561" x1="292.971" y1="576.796" x2="280.547" y2="126.162" gradientUnits="userSpaceOnUse">
<stop offset="0.2021" stop-color="white"/>
<stop offset="1" stop-color="#A7A9AC"/>
</linearGradient>
<linearGradient id="paint9_linear_214_561" x1="285.452" y1="257.248" x2="300.699" y2="-278.092" gradientUnits="userSpaceOnUse">
<stop stop-color="white"/>
<stop offset="1" stop-color="#A7A9AC"/>
</linearGradient>
<clipPath id="clip0_214_561">
<rect width="580.164" height="500" fill="white"/>
</clipPath>
</defs>
</svg>
