<svg width="694" height="500" viewBox="0 0 694 500" fill="none" xmlns="http://www.w3.org/2000/svg">
<g clip-path="url(#clip0_214_575)">
<path d="M450.427 439.218H245.386C231.331 439.218 220.614 426.638 222.848 412.762L235.498 334.183C237.279 323.118 246.829 314.983 258.036 314.983H437.777C448.984 314.983 458.534 323.118 460.315 334.183L472.965 412.762C475.199 426.639 464.482 439.218 450.427 439.218Z" fill="url(#paint0_linear_214_575)"/>
<path d="M466.41 37.713C466.117 16.838 449.113 0 428.166 0H268.286C247.339 0 230.334 16.836 230.041 37.713H229.883V51.21H466.453L466.495 37.714H466.41V37.713Z" fill="url(#paint1_linear_214_575)"/>
<path d="M347.906 138.795L229.883 51.266H291.835L347.906 138.795Z" fill="url(#paint2_linear_214_575)"/>
<path d="M347.906 138.795L465.93 51.266H403.977L347.906 138.795Z" fill="url(#paint3_linear_214_575)"/>
<g opacity="0.49">
<path d="M162.724 51.21H130.105C58.25 51.21 0 109.46 0 181.314V209.28V416.179C0 427.212 8.944 436.156 19.977 436.156H110.127C121.16 436.156 130.104 427.212 130.104 416.179V209.28H162.723V51.21H162.724Z" fill="url(#paint4_linear_214_575)"/>
<path d="M531.276 51.21H563.895C635.75 51.21 694 109.46 694 181.314V209.28V416.179C694 427.212 685.056 436.156 674.023 436.156H583.873C572.84 436.156 563.896 427.212 563.896 416.179V209.28H531.277V51.21H531.276Z" fill="url(#paint5_linear_214_575)"/>
<path d="M531.213 51.21V468.006C531.213 485.676 516.902 500.001 499.248 500.001H194.689C177.035 500.001 162.724 485.677 162.724 468.006V51.21H531.213Z" fill="url(#paint6_linear_214_575)"/>
</g>
<path d="M450.427 439.218H245.386C231.331 439.218 220.614 426.638 222.848 412.762L235.498 334.183C237.279 323.118 246.829 314.983 258.036 314.983H437.777C448.984 314.983 458.534 323.118 460.315 334.183L472.965 412.762C475.199 426.639 464.482 439.218 450.427 439.218Z" fill="url(#paint7_linear_214_575)"/>
<path d="M466.41 37.713C466.117 16.838 449.113 0 428.166 0H268.286C247.339 0 230.334 16.836 230.041 37.713H229.883V51.21H466.453L466.495 37.714H466.41V37.713Z" fill="url(#paint8_linear_214_575)"/>
<path d="M347.906 138.795L229.883 51.266H291.835L347.906 138.795Z" fill="url(#paint9_linear_214_575)"/>
<path d="M347.906 138.795L465.93 51.266H403.977L347.906 138.795Z" fill="url(#paint10_linear_214_575)"/>
</g>
<defs>
<linearGradient id="paint0_linear_214_575" x1="345.708" y1="220.385" x2="352.484" y2="824.619" gradientUnits="userSpaceOnUse">
<stop stop-color="white"/>
<stop offset="1" stop-color="#A7A9AC"/>
</linearGradient>
<linearGradient id="paint1_linear_214_575" x1="347.471" y1="-17.2575" x2="348.602" y2="80.0389" gradientUnits="userSpaceOnUse">
<stop stop-color="#D1D3D4"/>
<stop offset="1" stop-color="white"/>
</linearGradient>
<linearGradient id="paint2_linear_214_575" x1="288.062" y1="23.4556" x2="289.942" y2="185.084" gradientUnits="userSpaceOnUse">
<stop stop-color="#D1D3D4"/>
<stop offset="1" stop-color="white"/>
</linearGradient>
<linearGradient id="paint3_linear_214_575" x1="407.75" y1="23.4556" x2="405.871" y2="185.084" gradientUnits="userSpaceOnUse">
<stop stop-color="#D1D3D4"/>
<stop offset="1" stop-color="white"/>
</linearGradient>
<linearGradient id="paint4_linear_214_575" x1="0" y1="243.683" x2="242.343" y2="243.683" gradientUnits="userSpaceOnUse">
<stop stop-color="#D1D3D4"/>
<stop offset="1" stop-color="white"/>
</linearGradient>
<linearGradient id="paint5_linear_214_575" x1="694" y1="243.683" x2="451.656" y2="243.683" gradientUnits="userSpaceOnUse">
<stop stop-color="#D1D3D4"/>
<stop offset="1" stop-color="white"/>
</linearGradient>
<linearGradient id="paint6_linear_214_575" x1="353.435" y1="533.945" x2="342.141" y2="55.0755" gradientUnits="userSpaceOnUse">
<stop stop-color="white"/>
<stop offset="1" stop-color="#A7A9AC"/>
</linearGradient>
<linearGradient id="paint7_linear_214_575" x1="345.708" y1="220.385" x2="352.484" y2="824.619" gradientUnits="userSpaceOnUse">
<stop stop-color="white"/>
<stop offset="1" stop-color="#A7A9AC"/>
</linearGradient>
<linearGradient id="paint8_linear_214_575" x1="347.471" y1="-17.2575" x2="348.602" y2="80.0389" gradientUnits="userSpaceOnUse">
<stop stop-color="#D1D3D4"/>
<stop offset="1" stop-color="white"/>
</linearGradient>
<linearGradient id="paint9_linear_214_575" x1="288.062" y1="23.4556" x2="289.942" y2="185.084" gradientUnits="userSpaceOnUse">
<stop stop-color="#D1D3D4"/>
<stop offset="1" stop-color="white"/>
</linearGradient>
<linearGradient id="paint10_linear_214_575" x1="407.75" y1="23.4556" x2="405.871" y2="185.084" gradientUnits="userSpaceOnUse">
<stop stop-color="#D1D3D4"/>
<stop offset="1" stop-color="white"/>
</linearGradient>
<clipPath id="clip0_214_575">
<rect width="694" height="500" fill="white"/>
</clipPath>
</defs>
</svg>
