<svg width="579" height="501" viewBox="0 0 579 501" fill="none" xmlns="http://www.w3.org/2000/svg">
<path d="M297.114 0L40.676 0.089V45.361L297.114 45.166V0Z" fill="url(#paint0_linear_214_534)"/>
<path d="M198.78 45.15L40.643 45.378L0 219.052L39.088 465.244C36.983 483.87 53.711 500.02 75.11 500.02H211.117H260.679C280.67 500.02 296.876 485.845 296.876 468.359V256.764L296.903 231.131L297.098 45.15H198.78ZM87.274 208.888V84.653H229.822V208.888L157.731 248.888L87.274 208.888Z" fill="url(#paint1_linear_214_534)"/>
<path d="M229.823 84.653H87.274V208.888L157.731 248.888L229.823 208.888V84.653Z" fill="url(#paint2_linear_214_534)"/>
<path d="M290.811 485.9L575.265 166.229C581.744 158.838 576.488 147.257 566.659 147.267L379.232 147.46C373.566 147.466 368.2 150.009 364.607 154.391L296.902 231.13L296.875 256.763V468.356C296.876 474.847 294.64 480.878 290.811 485.9Z" fill="url(#paint3_linear_214_534)"/>
<path d="M297.114 0L40.676 0.089V45.361L297.114 45.166V0Z" fill="url(#paint4_linear_214_534)"/>
<path d="M198.78 45.15L40.643 45.378L0 219.052L39.088 465.244C36.983 483.87 53.711 500.02 75.11 500.02H211.117H260.679C280.67 500.02 296.876 485.845 296.876 468.359V256.764L296.903 231.131L297.098 45.15H198.78ZM87.274 208.888V84.653H229.822V208.888L157.731 248.888L87.274 208.888Z" fill="url(#paint5_linear_214_534)"/>
<path d="M229.823 84.653H87.274V208.888L157.731 248.888L229.823 208.888V84.653Z" fill="url(#paint6_linear_214_534)"/>
<path d="M290.811 485.9L575.265 166.229C581.744 158.838 576.488 147.257 566.659 147.267L379.232 147.46C373.566 147.466 368.2 150.009 364.607 154.391L296.902 231.13L296.875 256.763V468.356C296.876 474.847 294.64 480.878 290.811 485.9Z" fill="url(#paint7_linear_214_534)"/>
<defs>
<linearGradient id="paint0_linear_214_534" x1="168.585" y1="-43.9444" x2="169.15" y2="77.4671" gradientUnits="userSpaceOnUse">
<stop offset="0.1585" stop-color="white"/>
<stop offset="0.836" stop-color="#D1D3D4"/>
</linearGradient>
<linearGradient id="paint1_linear_214_534" x1="148.549" y1="611.726" x2="148.549" y2="-260.626" gradientUnits="userSpaceOnUse">
<stop offset="0.0536" stop-color="white"/>
<stop offset="0.9474" stop-color="#A7A9AC"/>
</linearGradient>
<linearGradient id="paint2_linear_214_534" x1="239.648" y1="13.7872" x2="57.8133" y2="311.951" gradientUnits="userSpaceOnUse">
<stop stop-color="white"/>
<stop offset="1" stop-color="#A7A9AC"/>
</linearGradient>
<linearGradient id="paint3_linear_214_534" x1="718.852" y1="-44.1927" x2="-120.919" y2="737.781" gradientUnits="userSpaceOnUse">
<stop offset="0.0726" stop-color="white"/>
<stop offset="1" stop-color="#A7A9AC"/>
</linearGradient>
<linearGradient id="paint4_linear_214_534" x1="168.585" y1="-43.9444" x2="169.15" y2="77.4671" gradientUnits="userSpaceOnUse">
<stop offset="0.1585" stop-color="white"/>
<stop offset="0.836" stop-color="#D1D3D4"/>
</linearGradient>
<linearGradient id="paint5_linear_214_534" x1="148.549" y1="611.726" x2="148.549" y2="-260.626" gradientUnits="userSpaceOnUse">
<stop offset="0.0536" stop-color="white"/>
<stop offset="0.9474" stop-color="#A7A9AC"/>
</linearGradient>
<linearGradient id="paint6_linear_214_534" x1="239.648" y1="13.7872" x2="57.8133" y2="311.951" gradientUnits="userSpaceOnUse">
<stop stop-color="white"/>
<stop offset="1" stop-color="#A7A9AC"/>
</linearGradient>
<linearGradient id="paint7_linear_214_534" x1="718.852" y1="-44.1927" x2="-120.919" y2="737.781" gradientUnits="userSpaceOnUse">
<stop offset="0.0726" stop-color="white"/>
<stop offset="1" stop-color="#A7A9AC"/>
</linearGradient>
</defs>
</svg>
