<svg width="580" height="500" viewBox="0 0 580 500" fill="none" xmlns="http://www.w3.org/2000/svg">
<path d="M478.105 0H111.512V45.359H478.105V0Z" fill="url(#paint0_linear_214_526)"/>
<path d="M579.839 465.177L477.826 45.131H199.332L111.511 45.359L0.156045 465.224C-1.67796 483.851 12.901 500 31.55 500H233.279H346.774H397.848L420.582 320.116L439.092 500H548.45C567.119 500 581.704 483.819 579.839 465.177Z" fill="url(#paint1_linear_214_526)"/>
<path d="M478.105 0H111.512V45.359H478.105V0Z" fill="url(#paint2_linear_214_526)"/>
<path d="M579.839 465.177L477.826 45.131H199.332L111.511 45.359L0.156045 465.224C-1.67796 483.851 12.901 500 31.55 500H233.279H346.774H397.848L420.582 320.116L439.092 500H548.45C567.119 500 581.704 483.819 579.839 465.177Z" fill="url(#paint3_linear_214_526)"/>
<defs>
<linearGradient id="paint0_linear_214_526" x1="293.656" y1="-93.7006" x2="295.892" y2="132.158" gradientUnits="userSpaceOnUse">
<stop offset="0.1585" stop-color="white"/>
<stop offset="0.7217" stop-color="#D1D3D4"/>
</linearGradient>
<linearGradient id="paint1_linear_214_526" x1="288.637" y1="514.728" x2="310.633" y2="-233.131" gradientUnits="userSpaceOnUse">
<stop stop-color="white"/>
<stop offset="1" stop-color="#A7A9AC"/>
</linearGradient>
<linearGradient id="paint2_linear_214_526" x1="293.656" y1="-93.7006" x2="295.892" y2="132.158" gradientUnits="userSpaceOnUse">
<stop offset="0.1585" stop-color="white"/>
<stop offset="0.7217" stop-color="#D1D3D4"/>
</linearGradient>
<linearGradient id="paint3_linear_214_526" x1="288.637" y1="514.728" x2="310.633" y2="-233.131" gradientUnits="userSpaceOnUse">
<stop stop-color="white"/>
<stop offset="1" stop-color="#A7A9AC"/>
</linearGradient>
</defs>
</svg>
