<svg width="580" height="500" viewBox="0 0 580 500" fill="none" xmlns="http://www.w3.org/2000/svg">
<g clip-path="url(#clip0_214_519)">
<path d="M557.551 226.438L92.834 494.04C71.553 506.295 44.399 499.053 31.999 477.817L31.616 477.161L573.866 164.913C586.415 186.406 579.088 214.036 557.551 226.438Z" fill="url(#paint0_linear_214_519)"/>
<path d="M420.304 68.089L322.122 124.312L221.135 147.719L32.411 328.242C-1.54295 357.39 -9.90396 406.225 12.492 444.582L31.533 477.191L456.351 232.561C418.702 168.083 440.748 85.542 505.594 48.196C505.774 48.092 505.956 47.995 506.137 47.893L478.443 0L431.488 27.091C417.091 35.398 412.106 53.673 420.304 68.089Z" fill="url(#paint1_linear_214_519)"/>
<path d="M573.771 164.944L506.133 47.886C440.87 85.083 418.598 167.904 456.351 232.56L573.771 164.944Z" fill="url(#paint2_linear_214_519)"/>
<path d="M106.287 311.218C123.952 307.152 140.175 298.41 153.235 285.917L322.004 124.482L322.1 124.295C314.156 110.14 296.118 105.139 281.968 113.169L220.106 148.779L32.3892 328.225L106.287 311.218Z" fill="url(#paint3_linear_214_519)"/>
</g>
<defs>
<linearGradient id="paint0_linear_214_519" x1="325.566" y1="360.979" x2="290.864" y2="300.285" gradientUnits="userSpaceOnUse">
<stop stop-color="#D1D3D4"/>
<stop offset="1" stop-color="white"/>
</linearGradient>
<linearGradient id="paint1_linear_214_519" x1="302.706" y1="322.15" x2="160.47" y2="73.3752" gradientUnits="userSpaceOnUse">
<stop stop-color="#D1D3D4"/>
<stop offset="0.7896" stop-color="white"/>
</linearGradient>
<linearGradient id="paint2_linear_214_519" x1="516.628" y1="201.521" x2="376.27" y2="-43.9682" gradientUnits="userSpaceOnUse">
<stop stop-color="#D1D3D4"/>
<stop offset="0.7896" stop-color="white"/>
</linearGradient>
<linearGradient id="paint3_linear_214_519" x1="198.504" y1="263.456" x2="132.696" y2="148.355" gradientUnits="userSpaceOnUse">
<stop stop-color="#D1D3D4"/>
<stop offset="0.7896" stop-color="white"/>
</linearGradient>
<clipPath id="clip0_214_519">
<rect width="580" height="500" fill="white"/>
</clipPath>
</defs>
</svg>
