<svg width="692" height="500" viewBox="0 0 692 500" fill="none" xmlns="http://www.w3.org/2000/svg">
<g opacity="0.49">
<path d="M140.014 0H0V176.108H140.014V0Z" fill="url(#paint0_linear_214_506)"/>
<path d="M692 0H551.029V176.108H692V0Z" fill="url(#paint1_linear_214_506)"/>
<path d="M454.136 0C454.136 60.967 404.696 110.39 343.709 110.39C282.722 110.39 233.281 60.967 233.281 0H140.014V464.355C140.014 484.041 155.978 500 175.672 500H515.415C535.108 500 551.073 484.041 551.073 464.355V0H454.136Z" fill="url(#paint2_linear_214_506)"/>
<path d="M343.708 110.39C404.695 110.39 454.135 60.967 454.135 0H426.286C426.286 45.591 389.314 82.55 343.707 82.55C298.1 82.55 261.13 45.591 261.13 0H233.281C233.281 60.967 282.721 110.39 343.708 110.39Z" fill="url(#paint3_linear_214_506)"/>
</g>
<defs>
<linearGradient id="paint0_linear_214_506" x1="0" y1="88.0539" x2="208.522" y2="88.0539" gradientUnits="userSpaceOnUse">
<stop stop-color="#D1D3D4"/>
<stop offset="1" stop-color="white"/>
</linearGradient>
<linearGradient id="paint1_linear_214_506" x1="518.979" y1="88.0539" x2="659.95" y2="88.0539" gradientUnits="userSpaceOnUse">
<stop stop-color="white"/>
<stop offset="1" stop-color="#D1D3D4"/>
</linearGradient>
<linearGradient id="paint2_linear_214_506" x1="344.192" y1="599.845" x2="347.011" y2="-167.027" gradientUnits="userSpaceOnUse">
<stop stop-color="white"/>
<stop offset="1" stop-color="#A7A9AC"/>
</linearGradient>
<linearGradient id="paint3_linear_214_506" x1="341.989" y1="191.187" x2="344.002" y2="-32.341" gradientUnits="userSpaceOnUse">
<stop offset="0.1585" stop-color="white"/>
<stop offset="0.836" stop-color="#D1D3D4"/>
</linearGradient>
</defs>
</svg>
